<?xml version="1.0" encoding="utf-8"?>
<!-- Generator: Adobe Illustrator 16.0.0, SVG Export Plug-In . SVG Version: 6.00 Build 0)  -->
<!DOCTYPE svg PUBLIC "-//W3C//DTD SVG 1.1//EN" "http://www.w3.org/Graphics/SVG/1.1/DTD/svg11.dtd">
<svg version="1.1" id="Calque_1" xmlns="http://www.w3.org/2000/svg" xmlns:xlink="http://www.w3.org/1999/xlink" x="0px" y="0px"
	 width="612px" height="792px" viewBox="0 0 612 792" enable-background="new 0 0 612 792" xml:space="preserve">
<path d="M24.504,375.796h207.036v160.699H24.504V375.796z"/>
<path fill="#FFFFFF" d="M32.508,383.788h192.223v143.653H32.508V383.788z"/>
<path fill="#A7D8D7" d="M424.747,40.616v265.936c0,9.533-3.174,18.679-8.822,25.418c-5.646,6.742-13.311,10.529-21.299,10.529H5.003
	c0,0-0.003,0-0.003-0.002L5.003,4.669l0,0l0.003-0.004l389.621,0.004l0,0C411.261,4.671,424.747,20.765,424.747,40.616
	L424.747,40.616z"/>
<g transform="matrix(1.0 0.0 0.0 1.0 0.0 2.0)">
	<g>
		<g>
			<g transform="matrix(1.0 0.0 0.0 1.0 0.0 2.0)">
				<g>
					<g transform="matrix(1.0 0.0 0.0 1.0 0.0 2.0)">
						<g id="g5dbff02c5a_2_2.19">
						</g>
					</g>
					<g transform="matrix(1.0 0.0 0.0 1.0 0.0 2.0)">
						<g id="g5dbff02c5a_2_2.21">
						</g>
					</g>
					<g transform="matrix(1.0 0.0 0.0 1.0 0.0 2.0)">
						<g id="g5dbff02c5a_2_2.23">
						</g>
					</g>
					<path fill="#72AEB2" d="M431.177,190.345L431.177,190.345c0-8.368,0.769-15.152,1.714-15.152h59.022
						c0.457,0,0.892,1.595,1.21,4.437c0.323,2.843,0.504,6.695,0.504,10.714v60.609c0,8.366-0.77,15.152-1.716,15.152h-59.022
						c-0.947,0-1.714-6.785-1.714-15.152v-60.607H431.177z"/>
					<path opacity="0.5" fill="#557E84" d="M19.212,271.543L19.212,271.543c-2.802,0-5.073-2.617-5.073-5.843V74.315
						c0-1.549,0.534-3.038,1.486-4.134c0.952-1.095,2.242-1.712,3.587-1.712H39.5c2.802,0,5.073,2.618,5.073,5.844v191.384
						c0,3.227-2.271,5.844-5.073,5.844H19.212V271.543z"/>
					<g transform="matrix(1.0 0.0 0.0 1.0 0.0 2.0)">
						<g id="g5dbff02c5a_2_2.25">
						</g>
					</g>
					<g transform="matrix(1.0 0.0 0.0 1.0 0.0 2.0)">
						<g id="g5dbff02c5a_2_2.27">
						</g>
					</g>
					<g transform="matrix(1.0 0.0 0.0 1.0 0.0 2.0)">
						<g id="g5dbff02c5a_2_2.29">
						</g>
					</g>
					<path fill="#557E84" d="M51.668,39.801L51.668,39.801c0-15.265,2.915-27.635,6.51-27.635h351.19
						c1.724,0,3.385,2.909,4.604,8.092c1.222,5.185,1.906,12.21,1.906,19.543v110.544c0,15.256-2.917,27.639-6.51,27.639H58.178
						c-3.599,0-6.51-12.382-6.51-27.639V39.801z"/>
					<g transform="matrix(1.0 0.0 0.0 1.0 0.0 2.0)">
						<g id="g5dbff02c5a_2_2.31">
						</g>
					</g>
					<g transform="matrix(1.0 0.0 0.0 1.0 0.0 2.0)">
						<g id="g5dbff02c5a_2_2.33">
						</g>
					</g>
					<g transform="matrix(1.0 0.0 0.0 1.0 0.0 2.0)">
						<g id="g5dbff02c5a_2_2.35">
						</g>
					</g>
					<g transform="matrix(1.0 0.0 0.0 1.0 0.0 2.0)">
						<g id="g5dbff02c5a_2_2.37">
						</g>
					</g>
					<g transform="matrix(1.0 0.0 0.0 1.0 0.0 2.0)">
						<g id="g5dbff02c5a_2_2.39">
						</g>
					</g>
					<g transform="matrix(1.0 0.0 0.0 1.0 0.0 2.0)">
						<g id="g5dbff02c5a_2_2.41">
						</g>
					</g>
					<g transform="matrix(1.0 0.0 0.0 1.0 0.0 2.0)">
						<g id="g5dbff02c5a_2_2.43">
						</g>
					</g>
					<g transform="matrix(1.0 0.0 0.0 1.0 0.0 2.0)">
						<g id="g5dbff02c5a_2_2.45">
						</g>
					</g>
					<path fill="#72AEB2" d="M502.161,190.345L502.161,190.345c0-8.37,0.769-15.152,1.716-15.152h59.021
						c0.456,0,0.89,1.595,1.211,4.437c0.323,2.843,0.504,6.695,0.504,10.714v60.609c0,8.366-0.77,15.152-1.717,15.152h-59.021
						c-0.949,0-1.716-6.785-1.716-15.152v-60.607H502.161z"/>
					<g transform="matrix(1.0 0.0 0.0 1.0 0.0 2.0)">
						<g id="g5dbff02c5a_2_2.47">
						</g>
					</g>
					<path fill="#557E84" d="M51.668,209.086L51.668,209.086c0-12.983,2.912-23.509,6.513-23.509h351.187
						c1.727,0,3.388,2.478,4.607,6.881c1.218,4.417,1.902,10.394,1.902,16.628v94.056c0,12.999-2.912,23.522-6.513,23.522H58.181
						c-3.602,0-6.513-10.526-6.513-23.522V209.086z"/>
					<path fill="#72AEB2" d="M429.856,91.583L429.856,91.583c0-8.37,0.769-15.154,1.714-15.154h59.023
						c0.456,0,0.89,1.595,1.211,4.438c0.323,2.843,0.503,6.695,0.503,10.713v60.609c0,8.364-0.769,15.152-1.718,15.152h-59.021
						c-0.947,0-1.714-6.785-1.714-15.152V91.583H429.856z"/>
					<path fill="#72AEB2" d="M502.161,91.583L502.161,91.583c0-8.37,0.769-15.154,1.716-15.154h59.021
						c0.456,0,0.89,1.595,1.211,4.438c0.323,2.843,0.504,6.695,0.504,10.713v60.609c0,8.364-0.77,15.152-1.717,15.152h-59.021
						c-0.949,0-1.716-6.785-1.716-15.152V91.583H502.161z"/>
					<text transform="matrix(0.8808 0 0 1 440.7639 90.1707)" fill="#FFFFFF" font-family="'Planewalker'" font-size="12.8432">zone des</text>
					<text transform="matrix(0.8808 0 0 1 444.8323 105.5818)" fill="#FFFFFF" font-family="'Planewalker'" font-size="12.8432">Portés</text>
					<text transform="matrix(0.8808 0 0 1 440.8557 120.9939)" fill="#FFFFFF" font-family="'Planewalker'" font-size="12.8432">disparus</text>
				</g>
			</g>
		</g>
	</g>
</g>
<text transform="matrix(0.8808 0 0 1 516.6174 98.2283)" fill="#FFFFFF" font-family="'Planewalker'" font-size="12.8432">Zone du</text>
<text transform="matrix(0.8808 0 0 1 518.3264 113.6394)" fill="#FFFFFF" font-family="'Planewalker'" font-size="12.8432">despote</text>
<text transform="matrix(0.8808 0 0 1 213.3176 28.1433)" fill="#FFFFFF" font-family="'Planewalker'" font-size="12.8432">Personnages</text>
<text transform="matrix(0.8808 0 0 1 222.3538 204.074)" fill="#FFFFFF" font-family="'Planewalker'" font-size="12.8432">Décors</text>
<text transform="matrix(-3.850277e-008 -0.8808 1 -4.371139e-008 33.489 204.0735)" fill="#FFFFFF" font-family="'Planewalker'" font-size="12.8432">Forum Dessiné</text>
<text transform="matrix(0.8808 0 0 1 435.4006 193.7849)" fill="#FFFFFF" font-family="'Planewalker'" font-size="12.8432">Imaginaire</text>
<text transform="matrix(0.8808 0 0 1 513.5178 193.7849)" fill="#FFFFFF" font-family="'Planewalker'" font-size="12.8432">Archives</text>
</svg>
